<svg width="20" height="20" viewBox="0 0 20 20" fill="none" xmlns="http://www.w3.org/2000/svg">
<g clip-path="url(#clip0_330_428)">
<path d="M14.1667 0C10.8958 0 8.33333 1.46417 8.33333 3.33333V6.98167C7.57833 6.78167 6.73417 6.66667 5.83333 6.66667C2.5625 6.66667 0 8.13083 0 10V16.6667C0 18.5358 2.5625 20 5.83333 20C9.10417 20 11.6667 18.5358 11.6667 16.6667V16.3458C12.4442 16.5525 13.2958 16.6667 14.1667 16.6667C17.4375 16.6667 20 15.2025 20 13.3333V3.33333C20 1.46417 17.4375 0 14.1667 0ZM14.1667 0.833333C16.8767 0.833333 19.1667 1.97833 19.1667 3.33333C19.1667 4.68833 16.8767 5.83333 14.1667 5.83333C11.4567 5.83333 9.16667 4.68833 9.16667 3.33333C9.16667 1.97833 11.4567 0.833333 14.1667 0.833333ZM5.83333 7.5C8.54333 7.5 10.8333 8.645 10.8333 10C10.8333 11.355 8.54333 12.5 5.83333 12.5C3.12333 12.5 0.833333 11.355 0.833333 10C0.833333 8.645 3.12333 7.5 5.83333 7.5ZM0.833333 11.7333C1.84417 12.6983 3.6825 13.3333 5.83333 13.3333C7.98417 13.3333 9.8225 12.6983 10.8333 11.7333V13.3333C10.8333 14.6883 8.54333 15.8333 5.83333 15.8333C3.12333 15.8333 0.833333 14.6883 0.833333 13.3333V11.7333ZM5.83333 19.1667C3.12333 19.1667 0.833333 18.0217 0.833333 16.6667V15.0667C1.84417 16.0317 3.6825 16.6667 5.83333 16.6667C7.98417 16.6667 9.8225 16.0317 10.8333 15.0667V16.6667C10.8333 18.0217 8.54333 19.1667 5.83333 19.1667ZM14.1667 15.8333C13.2858 15.8333 12.4283 15.7092 11.6667 15.4817V13.0133C12.4433 13.22 13.2942 13.3325 14.1667 13.3325C16.3175 13.3325 18.1558 12.6975 19.1667 11.7325V13.3325C19.1667 14.6875 16.8767 15.8333 14.1667 15.8333ZM14.1667 12.5C13.2825 12.5 12.4283 12.3742 11.6667 12.1467V10C11.6667 9.88917 11.6567 9.78 11.6383 9.6725C12.42 9.88417 13.2742 10 14.1667 10C16.3175 10 18.1558 9.365 19.1667 8.4V10C19.1667 11.355 16.8767 12.5 14.1667 12.5ZM14.1667 9.16667C13.0758 9.16667 12.0517 8.98333 11.1783 8.64667C10.7467 8.0775 10.0483 7.59583 9.16667 7.25V5.0675C10.1775 6.0325 12.0158 6.6675 14.1667 6.6675C16.3175 6.6675 18.1558 6.0325 19.1667 5.0675V6.6675C19.1667 8.0225 16.8767 9.1675 14.1667 9.1675V9.16667Z" fill="white"/>
</g>
<defs>
<clipPath id="clip0_330_428">
<rect width="20" height="20" fill="white"/>
</clipPath>
</defs>
</svg>
