<svg width="20" height="20" viewBox="0 0 20 20" fill="none" xmlns="http://www.w3.org/2000/svg">
<g clip-path="url(#clip0_330_430)">
<path d="M10 1.66602C4.3925 1.66602 0 4.04518 0 7.08268V12.916C0 15.9535 4.3925 18.3327 10 18.3327C15.6075 18.3327 20 15.9535 20 12.916V7.08268C20 4.04518 15.6075 1.66602 10 1.66602ZM2.5 15.5085C1.45583 14.7652 0.833333 13.8693 0.833333 12.916V9.27852C1.25 9.80102 1.81667 10.2752 2.5 10.6927V15.5085ZM3.33333 16.0177V11.1435C4.07417 11.4993 4.91333 11.7952 5.83333 12.0177V16.9752C4.89667 16.7285 4.05333 16.4027 3.33333 16.0177ZM9.58333 17.4877C8.56333 17.4635 7.58167 17.3535 6.66667 17.1685V12.1952C7.58167 12.3652 8.56 12.466 9.58333 12.4877V17.4877ZM13.3333 17.1685C12.4183 17.3535 11.4367 17.4635 10.4167 17.4877V12.4877C11.44 12.466 12.4183 12.3652 13.3333 12.1952V17.1685ZM16.6667 16.0177C15.9467 16.4027 15.1033 16.7285 14.1667 16.9752V12.0177C15.0867 11.7943 15.9258 11.4985 16.6667 11.1435V16.0177ZM19.1667 12.9152C19.1667 13.8693 18.5442 14.7643 17.5 15.5077V10.691C18.1833 10.2735 18.75 9.79935 19.1667 9.27685V12.9152ZM10 11.6652C5.03167 11.6652 0.833333 9.56602 0.833333 7.08185C0.833333 4.59768 5.03167 2.49935 10 2.49935C14.9683 2.49935 19.1667 4.59852 19.1667 7.08268C19.1667 9.56685 14.9683 11.666 10 11.666V11.6652Z" fill="white"/>
</g>
<defs>
<clipPath id="clip0_330_430">
<rect width="20" height="20" fill="white"/>
</clipPath>
</defs>
</svg>
