<svg width="47" height="47" viewBox="0 0 47 47" fill="none" xmlns="http://www.w3.org/2000/svg">
<path d="M23.4996 13.5138C19.0581 13.5138 18.2121 15.3703 18.2121 18.8013V20.2583H28.7871V18.8013C28.7871 15.3703 27.9411 13.5138 23.4996 13.5138Z" fill="white"/>
<path d="M23.4999 30.7852C24.9275 30.7852 26.0849 29.6279 26.0849 28.2002C26.0849 26.7726 24.9275 25.6152 23.4999 25.6152C22.0722 25.6152 20.9149 26.7726 20.9149 28.2002C20.9149 29.6279 22.0722 30.7852 23.4999 30.7852Z" fill="white"/>
<path d="M23.5 0C10.528 0 0 10.528 0 23.5C0 36.4719 10.528 46.9999 23.5 46.9999C36.4719 46.9999 46.9999 36.4719 46.9999 23.5C46.9999 10.528 36.4719 0 23.5 0ZM36.1429 29.375C36.1429 34.5449 34.5449 36.1429 29.375 36.1429H17.625C12.455 36.1429 10.857 34.5449 10.857 29.375V27.025C10.857 23.0065 11.8205 21.15 14.6875 20.5155V18.8C14.6875 16.6145 14.6875 9.98748 23.5 9.98748C32.3124 9.98748 32.3124 16.6145 32.3124 18.8V20.5155C35.1794 21.15 36.1429 23.0065 36.1429 27.025V29.375Z" fill="white"/>
</svg>
