<svg width="40" height="47" viewBox="0 0 40 47" fill="none" xmlns="http://www.w3.org/2000/svg">
<path d="M35.0422 5.18386L22.1848 0.368188C20.8523 -0.122729 18.6783 -0.122729 17.3458 0.368188L4.48839 5.18386C2.01043 6.11894 0 9.0177 0 11.6593V30.5947C0 32.4883 1.23898 34.9896 2.75849 36.1117L15.6159 45.7197C17.8834 47.4262 21.6004 47.4262 23.868 45.7197L36.7253 36.1117C38.2449 34.9662 39.4838 32.4883 39.4838 30.5947V11.6593C39.5072 9.0177 37.4968 6.11894 35.0422 5.18386ZM27.8888 18.275L17.8367 28.3271C17.486 28.6778 17.0419 28.8414 16.5977 28.8414C16.1535 28.8414 15.7094 28.6778 15.3587 28.3271L11.6184 24.5401C10.9405 23.8621 10.9405 22.74 11.6184 22.0621C12.2963 21.3842 13.4184 21.3842 14.0964 22.0621L16.6211 24.5868L25.4342 15.7737C26.1122 15.0957 27.2343 15.0957 27.9122 15.7737C28.5901 16.4516 28.5901 17.5971 27.8888 18.275Z" fill="white"/>
</svg>
