<svg width="47" height="47" viewBox="0 0 47 47" fill="none" xmlns="http://www.w3.org/2000/svg">
<path d="M23.5 13.9839C19.2935 13.9839 15.8625 17.4149 15.8625 21.6214V25.3814C15.8625 29.5879 19.2935 33.0189 23.5 33.0189C27.7065 33.0189 31.1374 29.5879 31.1374 25.3814V21.6214C31.1374 17.4149 27.7065 13.9839 23.5 13.9839ZM25.615 26.4154C25.615 27.5904 24.675 28.5304 23.5 28.5304C22.325 28.5304 21.385 27.5904 21.385 26.4154V20.6109C21.385 19.4594 22.325 18.4959 23.5 18.4959C24.675 18.4959 25.615 19.4359 25.615 20.6109V26.4154Z" fill="white"/>
<path d="M23.5 0C10.528 0 0 10.528 0 23.5C0 36.4719 10.528 46.9999 23.5 46.9999C36.4719 46.9999 46.9999 36.4719 46.9999 23.5C46.9999 10.528 36.4719 0 23.5 0ZM34.6624 25.38C34.6624 31.5369 29.657 36.5424 23.5 36.5424C17.343 36.5424 12.3375 31.5369 12.3375 25.38V21.62C12.3375 15.463 17.343 10.4575 23.5 10.4575C29.657 10.4575 34.6624 15.463 34.6624 21.62V25.38Z" fill="white"/>
</svg>
