<svg width="21" height="21" viewBox="0 0 21 21" fill="none" xmlns="http://www.w3.org/2000/svg">
<path fill-rule="evenodd" clip-rule="evenodd" d="M18.0105 0.307181H2.98793C1.51196 0.307181 0.306433 1.51271 0.306433 2.98868V18.0112C0.306433 19.4872 1.51196 20.6927 2.98793 20.6927H18.0105C19.4864 20.6927 20.692 19.4872 20.692 18.0112V2.98868C20.692 1.51271 19.4864 0.307181 18.0105 0.307181ZM6.52498 19.6734V1.32648H18.0105C18.9236 1.32648 19.6727 2.07558 19.6727 2.98868V6.77765H13.8927C11.8445 6.77765 10.1705 8.45146 10.1705 10.4999C10.1705 12.5482 11.8445 14.2222 13.8927 14.2222H19.6727V18.0112C19.6727 18.9243 18.9236 19.6734 18.0105 19.6734H6.52498ZM5.50593 19.6734V1.32648H2.98793C2.07483 1.32648 1.32573 2.07558 1.32573 2.98868V18.0112C1.32573 18.9243 2.07483 19.6734 2.98793 19.6734H5.50593ZM13.8927 7.79695H19.6727V13.2029H13.8927C12.4071 13.2029 11.1898 11.9855 11.1898 10.4999C11.1898 9.01434 12.4071 7.79695 13.8927 7.79695Z" fill="#C6C6C6"/>
<path d="M6.52498 1.32648V1.0201H6.2186V1.32648H6.52498ZM6.52498 19.6734H6.2186V19.9798H6.52498V19.6734ZM19.6727 6.77765V7.08404H19.979V6.77765H19.6727ZM19.6727 14.2222H19.979V13.9158H19.6727V14.2222ZM5.50593 1.32648H5.81231V1.0201H5.50593V1.32648ZM5.50593 19.6734V19.9798H5.81231V19.6734H5.50593ZM19.6727 7.79695H19.979V7.49057H19.6727V7.79695ZM19.6727 13.2029V13.5093H19.979V13.2029H19.6727ZM2.98793 0.613564H18.0105V0.00079786H2.98793V0.613564ZM0.612816 2.98868C0.612816 1.68192 1.68117 0.613564 2.98793 0.613564V0.00079786C1.34275 0.00079786 4.98548e-05 1.3435 4.98548e-05 2.98868H0.612816ZM0.612816 18.0112V2.98868H4.98548e-05V18.0112H0.612816ZM2.98793 20.3863C1.68117 20.3863 0.612816 19.318 0.612816 18.0112H4.98548e-05C4.98548e-05 19.6564 1.34275 20.9991 2.98793 20.9991V20.3863ZM18.0105 20.3863H2.98793V20.9991H18.0105V20.3863ZM20.3856 18.0112C20.3856 19.318 19.3172 20.3863 18.0105 20.3863V20.9991C19.6556 20.9991 20.9983 19.6564 20.9983 18.0112H20.3856ZM20.3856 2.98868V18.0112H20.9983V2.98868H20.3856ZM18.0105 0.613564C19.3172 0.613564 20.3856 1.68192 20.3856 2.98868H20.9983C20.9983 1.3435 19.6556 0.00079786 18.0105 0.00079786V0.613564ZM6.2186 1.32648V19.6734H6.83137V1.32648H6.2186ZM18.0105 1.0201H6.52498V1.63286H18.0105V1.0201ZM19.979 2.98868C19.979 1.90637 19.0928 1.0201 18.0105 1.0201V1.63286C18.7543 1.63286 19.3663 2.24479 19.3663 2.98868H19.979ZM19.979 6.77765V2.98868H19.3663V6.77765H19.979ZM13.8927 7.08404H19.6727V6.47127H13.8927V7.08404ZM10.4768 10.4999C10.4768 8.62068 12.0137 7.08404 13.8927 7.08404V6.47127C11.6753 6.47127 9.86407 8.28224 9.86407 10.4999H10.4768ZM13.8927 13.9158C12.0137 13.9158 10.4768 12.379 10.4768 10.4999H9.86407C9.86407 12.7174 11.6753 14.5286 13.8927 14.5286V13.9158ZM19.6727 13.9158H13.8927V14.5286H19.6727V13.9158ZM19.979 18.0112V14.2222H19.3663V18.0112H19.979ZM18.0105 19.9798C19.0928 19.9798 19.979 19.0935 19.979 18.0112H19.3663C19.3663 18.7551 18.7543 19.367 18.0105 19.367V19.9798ZM6.52498 19.9798H18.0105V19.367H6.52498V19.9798ZM5.19955 1.32648V19.6734H5.81231V1.32648H5.19955ZM2.98793 1.63286H5.50593V1.0201H2.98793V1.63286ZM1.63212 2.98868C1.63212 2.24479 2.24405 1.63286 2.98793 1.63286V1.0201C1.90562 1.0201 1.01935 1.90637 1.01935 2.98868H1.63212ZM1.63212 18.0112V2.98868H1.01935V18.0112H1.63212ZM2.98793 19.367C2.24405 19.367 1.63212 18.7551 1.63212 18.0112H1.01935C1.01935 19.0935 1.90562 19.9798 2.98793 19.9798V19.367ZM5.50593 19.367H2.98793V19.9798H5.50593V19.367ZM19.6727 7.49057H13.8927V8.10334H19.6727V7.49057ZM19.979 13.2029V7.79695H19.3663V13.2029H19.979ZM13.8927 13.5093H19.6727V12.8965H13.8927V13.5093ZM10.8834 10.4999C10.8834 12.1548 12.2379 13.5093 13.8927 13.5093V12.8965C12.5764 12.8965 11.4961 11.8163 11.4961 10.4999H10.8834ZM13.8927 7.49057C12.2379 7.49057 10.8834 8.84512 10.8834 10.4999H11.4961C11.4961 9.18355 12.5764 8.10334 13.8927 8.10334V7.49057Z" fill="white"/>
</svg>
