<svg width="142" height="34" viewBox="0 0 142 34" fill="none" xmlns="http://www.w3.org/2000/svg">
<path d="M1.16403 16.8776L2.56075 14.9043L3.95747 12.9622L5.35419 11.0818L6.75091 9.2928L8.14762 7.62343L9.54434 6.09999L10.9411 4.74653L12.3378 3.58438L13.7345 2.63187L15.1312 1.90402L16.5279 1.41232L17.9247 1.16452H19.3214L20.7181 1.41232L22.1148 1.90402L23.5115 2.63187L24.9083 3.58438L26.305 4.74653L27.7017 6.09999L29.0984 7.62343L30.4951 9.2928L31.8919 11.0818L33.2886 12.9622L34.6853 14.9043L36.082 16.8776L37.4787 18.8509L38.8755 20.793L40.2722 22.6734L41.6689 24.4624L43.0656 26.1318L44.4623 27.6552L45.8591 29.0087L47.2558 30.1708L48.6525 31.1234L50.0492 31.8512L51.4459 32.3429L52.8427 32.5907H54.2394L55.6361 32.3429L57.0328 31.8512L58.4295 31.1234L59.8263 30.1708L61.223 29.0087L62.6197 27.6552L64.0164 26.1318L65.4131 24.4624L66.8098 22.6734L68.2066 20.793L69.6033 18.8509L71 16.8776L72.3967 14.9043L73.7934 12.9622L75.1902 11.0818L76.5869 9.2928L77.9836 7.62343L79.3803 6.09999L80.777 4.74653L82.1738 3.58438L83.5705 2.63187L84.9672 1.90402L86.3639 1.41232L87.7606 1.16452L89.1574 1.16452L90.5541 1.41232L91.9508 1.90402L93.3475 2.63187L94.7442 3.58438L96.141 4.74653L97.5377 6.09999L98.9344 7.62343L100.331 9.2928L101.728 11.0818L103.125 12.9622L104.521 14.9043L105.918 16.8776L107.315 18.8509L108.711 20.793L110.108 22.6734L111.505 24.4624L112.902 26.1318L114.298 27.6552L115.695 29.0087L117.092 30.1708L118.488 31.1234L119.885 31.8512L121.282 32.3429L122.679 32.5907H124.075L125.472 32.3429L126.869 31.8512L128.266 31.1234L129.662 30.1708L131.059 29.0087L132.456 27.6552L133.852 26.1318L135.249 24.4624L136.646 22.6734L138.043 20.793L139.439 18.8509L140.836 16.8776" stroke="#495AB2" stroke-width="2.31915" stroke-linecap="round"/>
</svg>
